/* XPM */
static char *d588e5862c4c4063e2ab290689da9e2a6hFomGRhZltsai6v[] = {
/* columns rows colors chars-per-pixel */
"32 32 6 1 ",
"  c #1C242A",
". c #444E5F",
"X c #435B69",
"o c #8E9DAA",
"O c #C5D1DC",
"+ c #E6EDF3",
/* pixels */
"+++++++++++++++. ++++++++++++++O",
"+OOOOOOOOOOOOOO. OOOOOOOOOOOOOO.",
"+oooooooooooooO. oooooooooooooO.",
"+oooooooooooooO. oooooooooooooO.",
"+ooo.       ooO. ooo        ooO.",
"+ooo.X      ooO. ooo X      ooO.",
"+ooo.X      ooO. ooo X      ooO.",
"+ooo.X      ooO. ooo X      ooO.",
"+ooo.X      ooO. ooo X      ooO.",
"+ooo.X      ooO. ooo X      ooO.",
"+ooo.X      ooO. ooo X      ooO.",
"+ooo.X     XooO. ooo X     XooO.",
"+ooo.X    XXooO. ooo X    XXooO.",
"+ooo.X   XXXooO. ooo X   XXXooO.",
"+ooo.X  XXX ooO. ooo X  XXX ooO.",
"+ooo.X XXX  o+O. +Oo X XXX  ooO.",
"+ooo.XXXX   oOO. OOo XXXX   ooO.",
"+ooo.XXX    o... ..o XXX    ooO.",
"+ooo.XX     ooO. ooo XX     ooO.",
"+ooo.X      ooO. ooo X      ooO.",
"+ooo.X      ooO. ooo X      ooO.",
"+ooo.X      ooO. ooo X      ooO.",
"+ooo.X      ooO. ooo X      ooO.",
"+ooo.X     XooO. ooo X     XooO.",
"+ooo.X    XXooO. ooo X    XXooO.",
"+ooo.X   XXXooO. ooo X   XXXooO.",
"+ooo.X  XXXXooO. ooo X  XXXXooO.",
"+ooo........ooO. ooo........ooO.",
"+oooooooooooooO. oooooooooooooO.",
"+oooooooooooooO. oooooooooooooO.",
"+oooooooooooooO. oooooooooooooO.",
"+oooooooooooooO. oooooooooooooO."
};
