/* XPM */
static char *wall__1_1706693239[] = {
/* columns rows colors chars-per-pixel */
"64 64 133 2 ",
"   c None",
".  c black",
"X  c #010101",
"o  c gray1",
"O  c #060302",
"+  c #070403",
"@  c #040404",
"#  c #080403",
"$  c #090403",
"%  c #0A0504",
"&  c #0B0504",
"*  c #0C0604",
"=  c #0C0605",
"-  c #0E0705",
";  c #0C0D0D",
":  c #0D0E0E",
">  c #0E0E0F",
",  c #100806",
"<  c #110806",
"1  c #180C09",
"2  c #1B0D0A",
"3  c #1C0E0B",
"4  c #1E0E0A",
"5  c #1E0E0B",
"6  c #1F0F0B",
"7  c #0F1011",
"8  c #101111",
"9  c #101112",
"0  c #101212",
"q  c #111212",
"w  c #161819",
"e  c #181A1B",
"r  c #191C1D",
"t  c #1A1C1D",
"y  c #200F0B",
"u  c #25120D",
"i  c #26120D",
"p  c #2E1610",
"a  c #2F1711",
"s  c #301711",
"d  c #3D1E15",
"f  c #3F1E16",
"g  c #1D1F20",
"h  c #1E2021",
"j  c #1F2122",
"k  c #1F2223",
"l  c #202324",
"z  c #222526",
"x  c #222527",
"c  c #363A3C",
"v  c #373B3D",
"b  c #411F17",
"n  c #552A20",
"m  c #562A20",
"M  c #5E2D21",
"N  c #5F2E21",
"B  c #602E22",
"V  c #6E3526",
"C  c #723728",
"Z  c #71372B",
"A  c #73382B",
"S  c #73392B",
"D  c #743829",
"F  c #77392A",
"G  c #783A2A",
"H  c #7A3B2B",
"J  c #7B3B2B",
"K  c #7D3C2C",
"L  c #7E3D2C",
"P  c #5D6568",
"I  c #5E666A",
"U  c #636B6F",
"Y  c #646C70",
"T  c #666E72",
"R  c #676F73",
"E  c #677074",
"W  c #6F787C",
"Q  c #707A7E",
"!  c #717B7F",
"~  c #A9513B",
"^  c #AF543D",
"/  c #BB5C47",
"(  c #BE5D48",
")  c #D4664A",
"_  c #D5664B",
"`  c #D46850",
"'  c #D66850",
"]  c #D86950",
"[  c #D86951",
"{  c #D86A50",
"}  c #D86A51",
"|  c #EA7152",
" . c #EB7152",
".. c #EC7253",
"X. c #ED7253",
"o. c #737D81",
"O. c #747E82",
"+. c #767F84",
"@. c #768085",
"#. c #798488",
"$. c #7A8489",
"%. c #7C868A",
"&. c #7C878B",
"*. c #7F898E",
"=. c #7F8A8F",
"-. c #818C90",
";. c #828D92",
":. c #889499",
">. c #8A959A",
",. c #8B969B",
"<. c #919DA2",
"1. c #929EA4",
"2. c #96A2A8",
"3. c #97A3A9",
"4. c #A0AEB4",
"5. c #A1AFB4",
"6. c #A4B2B8",
"7. c #A5B3B9",
"8. c #AAB8BE",
"9. c #ABB9BF",
"0. c #ACBAC0",
"q. c #ACBBC1",
"w. c #ADBCC2",
"e. c #AFBDC4",
"r. c #AFBEC4",
"t. c #B3C2C9",
"y. c #B4C3C9",
"u. c #B5C4CB",
"i. c #B7C6CD",
"p. c #B8C7CE",
"a. c #B8C8CE",
"s. c #BECED5",
"d. c #BFCFD6",
/* pixels */
"  . . . . . . . . . . . . . . . . . . . . . . .       $ . . . . . . . . . . . . . . . . . . . . . . . . . . . . . . . . . . .   ",
". . $ y y y y y y y y y y y < . 7 t 9 . - u u u ~ X.X.V y y y y y y y y y y y y y y y < . 9 t 9 . < 4 u 4 u u 4 y y 4 4 3 + . . ",
". $ _ X.X.X.X.X.X.X.X.X.X.X.J . o.d.$.. D X.X.X.X.X.X.X.X.X.X.X.X.X.X.X.X.X.X.X.X.X.X.D . #.d.O.. D | X.X.X.X.X.X.X.X.X.` ( # . ",
". 4 X.X.X.X.X.X.X.X.X.X.X.X.J . o.d.#.. D | X.X.X.X.X.X.X.X.X.X.X.X.X.X.X.X.X.X.X.X.X.D . $.d.@.. J X.X.X.X.X.X.X.X.X.X.} ` 2 . ",
". 4 X.X.X.X.X.X.X.X.X.X.X.X.J . o.d.#.. D X.X.X.X.X.X.X.X.X.X.X.X.X.X.X.X.X.X.X.X.X.X.D . #.d.+.. J X.X.X.X.X.X.X.X.X.X.} ' 2 . ",
". 4 X.X.X.X.X.X.X.X.X.X.X.X.J . o.d.#.. D X.X.X.X.X.X.X.X.X.X.X.X.X.X.X.X.X.X.X.X.X.X.D . $.d.@.. D X.X.X.X.X.X.X.X.X.X.} ' 2 . ",
". 4 X.X.X.X.X.X.X.X.X.X.X.X.J . o.d.$.. D X.X.X.X.X.X.X.X.X.X.X.X.X.X.X.X.X.X.X.X.X.X.D . $.d.O.. D X.X.X.X.X.X.X.X.X.X.} ` 2 . ",
". 4 X.X.X.X.X.X.X.X.X.X.X.X.J . o.d.#.. D X.X.X.X.X.X.X.X.X.X.X.X.X.X.X.X.X.X.X.X.X.X.D . #.d.@.. J X.X.X.X.X.X.X.X.X.X.{ ` 2 . ",
". 4 X.X.X.X.X.X.X.X.X.X.X.X.J . o.d.$.. D X.X.X.X.X.X.X.X.X.X.X.X.X.X.X.X.X.X.X.X.X.X.D . $.d.O.. D X.X.X.X.X.X.X.X.X.X.{ ` 2 . ",
". 4 X.X.X.X.X.X.X.X.X.X.X.X.J . o.d.#.. D X.X.X.X.X.X.X.X.X.X.X.X.X.X.X.X.X.X.X.X.X.X.D . #.d.@.. J X.X.X.X.X.X.X.X.X.X.{ ' 2 . ",
". 4 X.X.X.X.X.X.X.X.X.X.X.X.J . o.d.$.. D X.X.X.X.X.X.X.X.X.X.X.X.X.X.X.X.X.X.X.X.X.X.D . $.d.O.. J X.X.X.X.X.X.X.X.X.X.} ` 2 . ",
". 4 X.X.X.X.X.X.X.X.X.X.X.X.J . o.d.$.. D X.X.X.X.X.X.X.X.X.X.X.X.X.X.X.X.X.X.X.X.X.X.D . $.d.O.. D X.X.X.X.X.X.X.X.X.X.{ ` 2 . ",
". * N N N N N N N N N N N N s . &.d.;.. p N N N N N N N N N N N N N N N N N N N N N B p . ;.d.=.. s B N N N N N N N N N m n # . ",
". . . . . . . . . . . . . . . t t.d.i.t . . . . . . . . . . . . . . . . . . . . . . . . k u.d.u.t . . . . . . . . . . . . . . . ",
". 9 =.=.=.=.=.=.=.=.=.=.=.=.>.i.d.d.d.i.>.-.=.=.=.=.=.=.=.=.=.=.=.=.=.=.=.=.=.=.=.=.=.>.i.d.d.d.i.>.=.=.=.=.=.=.=.=.=.=.=.-.9 . ",
". e d.d.d.d.d.d.d.d.d.d.d.d.d.d.d.d.d.d.d.d.d.d.d.d.d.d.d.d.d.d.d.d.d.d.d.d.d.d.d.d.d.d.d.d.d.d.d.d.d.d.d.d.d.d.d.d.d.d.d.d.e . ",
". : T T T T T T E T T T T T T T T T T T T T T T T T T T E >.d.d.d.d.>.E T T T T T T T T T T T R T T T T T T T T T T T T T T : . ",
". . . . . . . . . . . . . . . . . . . . . . . . . . . . . . I d.d.I . . . . . . . . . . . . . . . . . . . . . . . . . . . . . . ",
". < L L L L L L L L L L L L L L L L L L L L L L L L L L L . k d.d.k . L L L L L L L L L L L L L L L L L L L L L L L L L D Z * . ",
". 4 X.X.X.X.X.X.X.X.X.X.X.X.X.X.X.X.X.X.X.X.X.X.X.X.X.X.| . t d.d.w . | X.X.X.X.X.X.X.X.X.X.X.X.X.X.X.X.X.X.X.X.X.X.X.X.` ` 2 . ",
". 4 X.X.X.X.X.X.X.X.X.X.X.X.X.X.X.X.X.X.X.X.X.X.X.X.X.X.| . r d.d.t . | X.X.X.X.X.X.X.X.X.X.X.X.X.X.X.X.X.X.X.X.X.X.X.X.} ` 1 . ",
". 4 X.X.X.X.X.X.X.X.X.X.X.X.X.X.X.X.X.X.X.X.X.X.X.X.X.X.| . r d.d.t . | X.X.X.X.X.X.X.X.X.X.X.X.X.X.X.X.X.X.X.X.X.X.X.X.} ` 2 . ",
". 4 X.X.X.X.X.X.X.X.X.X.X.X.X.X.X.X.X.X.X.X.X.X.X.X.X.X.X.. r d.d.t . X.X.X.X.X.X.X.X.X.X.X.X.X.X.X.X.X.X.X.X.X.X.X.X.X.` ` 1 . ",
". 4 X.X.X.X.X.X.X.X.X.X.X.X.X.X.X.X.X.X.X.X.X.X.X.X.X.X.| . t d.d.t . | X.X.X.X.X.X.X.X.X.X.X.X.X.X.X.X.X.X.X.X.X.X.X.X.} ` 2 . ",
". 4 X.X.X.X.X.X.X.X.X.X.X.X.X.X.X.X.X.X.X.X.X.X.X.X.X.X.X.. t d.d.t . | X.X.X.X.X.X.X.X.X.X.X.X.X.X.X.X.X.X.X.X.X.X.X.X.} ` 1 . ",
". 4 X.X.X.X.X.X.X.X.X.X.X.X.X.X.X.X.X.X.X.X.X.X.X.X.X.X.| . t d.d.r . X.X.X.X.X.X.X.X.X.X.X.X.X.X.X.X.X.X.X.X.X.X.X.X.X.} ` 2 . ",
". 4 X.X.X.X.X.X.X.X.X.X.X.X.X.X.X.X.X.X.X.X.X.X.X.X.X.X.| . t d.d.r . | X.X.X.X.X.X.X.X.X.X.X.X.X.X.X.X.X.X.X.X.X.X.X.X.` ` 1 . ",
". 4 X.X.X.X.X.X.X.X.X.X.X.X.X.X.X.X.X.X.X.X.X.X.X.X.X.X.| . r d.d.r . | X.X.X.X.X.X.X.X.X.X.X.X.X.X.X.X.X.X.X.X.X.X.X.X.} ` 2 . ",
". 4 X.X.X.X.X.X.X.X.X.X.X.X.X.X.X.X.X.X.X.X.X.X.X.X.X.X.| . t d.d.t . | X.X.X.X.X.X.X.X.X.X.X.X.X.X.X.X.X.X.X.X.X.X.X.X.} ` 2 . ",
". . . . . . . . . . . . . . . . . . . . . . . . . . . . . . v d.d.c . . . . . . . . . . . . . . . . . . . . . . . . . . . . . . ",
". . t t t t t t t t t r t t t r t t t r t t t r t t t r t v 7.d.d.6.c r t t t t r r r t t t r r r t t t r r r t t t t t t t . . ",
". e d.d.d.d.d.d.d.d.d.d.d.d.d.d.d.d.d.d.d.d.d.d.d.d.d.d.d.d.d.d.d.d.d.d.d.d.d.d.d.d.d.d.d.d.d.d.d.d.d.d.d.d.d.d.d.d.d.d.d.d.w . ",
". t d.d.d.d.d.d.d.d.d.d.d.d.d.d.d.d.d.d.d.d.d.d.d.d.d.d.d.d.d.d.d.d.d.d.d.d.d.d.d.d.d.d.d.d.d.d.d.d.d.d.d.d.d.d.d.d.d.d.d.d.w . ",
". . t t r t t t r t t t t t k U d.d.d.T k t t t r t t t r t t t t t t t t r r r t t t k E d.d.d.T k r r t t t t r r t t t r . . ",
". . . . . . . . . . . . . . . . 1.d.2.. . . . . . . . . . . . . . . . . . . . . . . . . . 3.d.1.. . . . . . . . . . . . . . . . ",
". 4 X.X.X.X.X.X.X.X.X.X.X.X.J . O.d.$.. D X.X.X.X.X.X.X.X.X.X.X.X.X.X.X.X.X.X.X.X.X.X.C . $.d.@.. D X.X.X.X.X.X.X.X.X.X.} ` 3 . ",
". 4 X.X.X.X.X.X.X.X.X.X.X.X.J . o.d.$.. D X.X.X.X.X.X.X.X.X.X.X.X.X.X.X.X.X.X.X.X.X.X.D . #.d.+.. J X.X.X.X.X.X.X.X.X.X.} ` 4 . ",
". 4 X.X.X.X.X.X.X.X.X.X.X.X.J . o.d.$.. D X.X.X.X.X.X.X.X.X.X.X.X.X.X.X.X.X.X.X.X.X.X.D . $.d.+.. J X.X.X.X.X.X.X.X.X.X.} ` 2 . ",
". 4 X.X.X.X.X.X.X.X.X.X.X.X.J . o.d.#.. D X.X.X.X.X.X.X.X.X.X.X.X.X.X.X.X.X.X.X.X.X.X.D . $.d.+.. D X.X.X.X.X.X.X.X.X.X.} ` 2 . ",
". 4 X.X.X.X.X.X.X.X.X.X.X.X.J . o.d.$.. D X.X.X.X.X.X.X.X.X.X.X.X.X.X.X.X.X.X.X.X.X.X.D . #.d.+.. J X.X.X.X.X.X.X.X.X.X.} ` 2 . ",
". 4 X.X.X.X.X.X.X.X.X.X.X.X.J . o.d.#.. D X.X.X.X.X.X.X.X.X.X.X.X.X.X.X.X.X.X.X.X.X.X.D . $.d.@.. D X.X.X.X.X.X.X.X.X.X.} ` 2 . ",
". 4 X.X.X.X.X.X.X.X.X.X.X.X.J . o.d.$.. D X.X.X.X.X.X.X.X.X.X.X.X.X.X.X.X.X.X.X.X.X.X.D . #.d.O.. J X.X.X.X.X.X.X.X.X.X.} ` 2 . ",
". 4 X.X.X.X.X.X.X.X.X.X.X.X.J . o.d.#.. D X.X.X.X.X.X.X.X.X.X.X.X.X.X.X.X.X.X.X.X.X.X.D . $.d.@.. J X.X.X.X.X.X.X.X.X.X.} ` 2 . ",
". 4 X.X.X.X.X.X.X.X.X.X.X.X.J . o.d.#.. D X.X.X.X.X.X.X.X.X.X.X.X.X.X.X.X.X.X.X.X.X.X.D . $.d.O.. D X.X.X.X.X.X.X.X.X.X.} ` 2 . ",
". 4 X.X.X.X.X.X.X.X.X.X.X.X.J . o.d.$.. D X.X.X.X.X.X.X.X.X.X.X.X.X.X.X.X.X.X.X.X.X.X.D . $.d.@.. J X.X.X.X.X.X.X.X.X.X.} ` 2 . ",
". < L L L L L L L L L L L L b . #.d.=.. d L L L L L L L L L L L L L L L L L L L L L L d . =.d.&.. b L L L L L L L L L L S S * . ",
". . . . . . . . . . . . . . . 7 0.d.r.9 . . . . . . . . . . . . . . . . . . . . . . . . 9 r.d.q.: . . . . . . . . . . . . . . . ",
". : T T T T T T T T T T T T W 8.d.d.d.0.! T T T T T T T T T T T T T T T T T T T T T T ! q.d.d.d.0.! T T T T T T T T T T T T : . ",
". r d.d.d.d.d.d.d.d.d.d.d.d.d.d.d.d.d.d.d.d.d.d.d.d.d.d.d.d.d.d.d.d.d.d.d.d.d.d.d.d.d.d.d.d.d.d.d.d.d.d.d.d.d.d.d.d.d.d.d.d.w . ",
". 9 =.=.=.=.=.=.=.=.=.=.=.=.=.=.=.=.=.=.=.=.=.=.=.=.=.=.;.5.d.d.d.d.4.;.=.=.=.=.=.=.=.=.=.=.=.=.=.=.=.=.=.=.=.=.=.=.=.=.=.=.7 . ",
". . . . . . . . . . . . . . . . . . . . . . . . . . . . . . W d.d.W . . . . . . . . . . . . . . . . . . . . . . . . . . . . . . ",
". * N N N N N N N N N N N N N N N N N N N N N N N N N N N . x d.d.z . N N N N N N N N N N N N N N N N N N N N N N N N N n n # . ",
". 4 X.X.X.X.X.X.X.X.X.X.X.X.X.X.X.X.X.X.X.X.X.X.X.X.X.X.| . t d.d.t . | X.X.X.X.X.X.X.X.X.X.X.X.X.X.X.X.X.X.X.X.X.X.X.X.} ` 2 . ",
". 4 X.X.X.X.X.X.X.X.X.X.X.X.X.X.X.X.X.X.X.X.X.X.X.X.X.X.X.. t d.d.t . | X.X.X.X.X.X.X.X.X.X.X.X.X.X.X.X.X.X.X.X.X.X.X.X.} ` 2 . ",
". 4 X.X.X.X.X.X.X.X.X.X.X.X.X.X.X.X.X.X.X.X.X.X.X.X.X.X.| . t d.d.t . | X.X.X.X.X.X.X.X.X.X.X.X.X.X.X.X.X.X.X.X.X.X.X.X.` ` 1 . ",
". 4 X.X.X.X.X.X.X.X.X.X.X.X.X.X.X.X.X.X.X.X.X.X.X.X.X.X.| . t d.d.t . X.X.X.X.X.X.X.X.X.X.X.X.X.X.X.X.X.X.X.X.X.X.X.X.X.} _ 2 . ",
". 4 X.X.X.X.X.X.X.X.X.X.X.X.X.X.X.X.X.X.X.X.X.X.X.X.X.X.| . r d.d.t . | X.X.X.X.X.X.X.X.X.X.X.X.X.X.X.X.X.X.X.X.X.X.X.X.} ` 2 . ",
". 4 X.X.X.X.X.X.X.X.X.X.X.X.X.X.X.X.X.X.X.X.X.X.X.X.X.X.| . r d.d.r . X.X.X.X.X.X.X.X.X.X.X.X.X.X.X.X.X.X.X.X.X.X.X.X.X.} ` 2 . ",
". 4 X.X.X.X.X.X.X.X.X.X.X.X.X.X.X.X.X.X.X.X.X.X.X.X.X.X.X.. t d.d.r . | X.X.X.X.X.X.X.X.X.X.X.X.X.X.X.X.X.X.X.X.X.X.X.X.` ` 1 . ",
". 4 X.X.X.X.X.X.X.X.X.X.X.X.X.X.X.X.X.X.X.X.X.X.X.X.X.X.| . t d.d.r . | X.X.X.X.X.X.X.X.X.X.X.X.X.X.X.X.X.X.X.X.X.X.X.X.} ` 2 . ",
". 4 X.X.X.X.X.X.X.X.X.X.X.X.X.X.X.X.X.X.X.X.X.X.X.X.X.X.| . t d.d.t . X.X.X.X.X.X.X.X.X.X.X.X.X.X.X.X.X.X.X.X.X.X.X.X.X.} ` 2 . ",
". $ ) X.X.X.X.X.X.X.X.X.X.X.X.X.X.X.X.X.X.X.X.X.X.X.X.X.| . t d.d.t . | X.X.X.X.X.X.X.X.X.X.X.X.X.X.X.X.X.X.X.X.X.X.X.X.` ( O . ",
". . + y y y B X.X.^ u y y y y y y y y y y y y y y y y y u . o t t o . y y y y y y y y y y y y y y y y y y y y y u 4 6 3 2 $ . . ",
"  . . . . . $       . . . . . . . . . . . . . . . . . . . . . . . . . . . . . . . . . . . . . . . . . . . . . . . . . . . . .   "
};
